<svg width="271" height="246" viewBox="0 0 271 246" fill="none" xmlns="http://www.w3.org/2000/svg">
<g clip-path="url(#clip0_102_2)">
<path d="M199.06 10.4299C199.313 10.4299 199.47 10.4032 199.53 10.3499C209.81 0.869877 222.1 -0.680122 235.7 1.67988C257.78 5.49988 271.09 22.6799 271.24 44.7799C271.293 52.3932 271.29 68.9132 271.23 94.3399C271.23 94.5414 271.15 94.7347 271.007 94.8773C270.865 95.0198 270.672 95.0999 270.47 95.0999H231.77C231.568 95.0999 231.375 95.0198 231.233 94.8773C231.09 94.7347 231.01 94.5414 231.01 94.3399C231.057 77.4665 231.08 62.6432 231.08 49.8699C231.08 48.0032 230.9 46.6199 230.54 45.7199C229.45 42.9799 226.46 40.5099 223.31 41.5899C219.37 42.9399 218.71 46.1899 218.71 50.0199C218.737 69.7532 218.73 84.4699 218.69 94.1699C218.69 94.3892 218.604 94.5999 218.451 94.7569C218.298 94.9138 218.089 95.0046 217.87 95.0099C215.437 95.0632 209.153 95.0865 199.02 95.0799C188.88 95.0799 182.597 95.0532 180.17 94.9999C179.949 94.9946 179.739 94.9024 179.585 94.7433C179.432 94.5842 179.347 94.371 179.35 94.1499C179.317 84.4499 179.323 69.7332 179.37 49.9999C179.37 46.1699 178.71 42.9199 174.77 41.5699C171.62 40.4899 168.63 42.9499 167.54 45.6899C167.18 46.5899 167 47.9732 167 49.8399C166.987 62.6132 166.997 77.4365 167.03 94.3099C167.03 94.5114 166.95 94.7047 166.807 94.8473C166.665 94.9898 166.472 95.0699 166.27 95.0699L127.57 95.0399C127.368 95.0399 127.175 94.9598 127.033 94.8173C126.89 94.6747 126.81 94.4814 126.81 94.2799C126.77 68.8532 126.78 52.3332 126.84 44.7199C127.01 22.6199 140.33 5.44988 162.42 1.64988C176.02 -0.70012 188.31 0.859877 198.58 10.3499C198.64 10.4032 198.8 10.4299 199.06 10.4299Z" fill="#FFCC00"/>
<path d="M49.72 3.58009C68.13 3.57009 84.93 12.9901 92.43 29.8401C97.01 40.1201 96.65 48.3001 96.67 62.2001C96.69 73.9867 96.6967 85.7868 96.69 97.6001C96.69 97.6717 96.6616 97.7404 96.6109 97.791C96.5603 97.8416 96.4916 97.8701 96.42 97.8701H57.47C57.09 97.8701 56.9 97.6834 56.9 97.3101C56.8267 89.3234 56.8 74.8234 56.82 53.8101C56.82 51.1234 56.6333 49.2834 56.26 48.2901C55.34 45.8101 52.6 43.3701 49.74 43.3701C46.89 43.3801 44.15 45.8201 43.23 48.3001C42.8567 49.2934 42.6733 51.1334 42.68 53.8201C42.72 74.8334 42.71 89.3334 42.65 97.3201C42.65 97.6934 42.46 97.8801 42.08 97.8801L3.13001 97.9201C3.0584 97.9201 2.98973 97.8916 2.93909 97.841C2.88846 97.7904 2.86001 97.7217 2.86001 97.6501C2.84001 85.8367 2.83334 74.0368 2.84001 62.2501C2.84001 48.3501 2.47001 40.1701 7.04001 29.8901C14.52 13.0301 31.31 3.59009 49.72 3.58009Z" fill="#1E71CF"/>
<path d="M34.91 126.31C34.9 131.05 39.29 131.75 42.93 130.47C43.2433 130.357 43.4 130.463 43.4 130.79V131.81C43.4 132.183 43.2167 132.413 42.85 132.5C37.24 133.88 32.49 132.41 32.5 126.3C32.52 120.2 37.28 118.75 42.89 120.16C43.25 120.253 43.43 120.487 43.43 120.86L43.42 121.88C43.42 122.207 43.2667 122.313 42.96 122.2C39.32 120.89 34.92 121.57 34.91 126.31Z" fill="#1E71CF"/>
<path d="M50.59 123.1L46.57 132.37C46.4233 132.703 46.1667 132.87 45.8 132.87H44.74C44.2733 132.87 44.1333 132.653 44.32 132.22L49.3 120.74C49.4411 120.414 49.6744 120.137 49.9711 119.942C50.2678 119.747 50.615 119.644 50.97 119.644C51.3249 119.644 51.6722 119.747 51.9689 119.942C52.2656 120.137 52.4989 120.414 52.64 120.74L57.64 132.34C57.6681 132.404 57.6801 132.473 57.6747 132.543C57.6693 132.612 57.6467 132.679 57.609 132.737C57.5714 132.796 57.5197 132.844 57.4588 132.878C57.3979 132.911 57.3296 132.929 57.26 132.93H56.04C55.8617 132.93 55.6875 132.877 55.5383 132.78C55.3892 132.682 55.2717 132.543 55.2 132.38L54.1 129.82C53.9667 129.513 53.73 129.36 53.39 129.36H50.48C50.3513 129.361 50.2247 129.327 50.1137 129.262C50.0027 129.197 49.9116 129.103 49.85 128.99C49.7883 128.877 49.7586 128.749 49.7639 128.621C49.7691 128.492 49.8093 128.368 49.88 128.26C50.4467 127.367 51.2866 127.017 52.4 127.21C52.4648 127.223 52.5321 127.218 52.5943 127.196C52.6564 127.173 52.7112 127.134 52.7525 127.082C52.7939 127.03 52.8202 126.968 52.8286 126.903C52.8369 126.837 52.827 126.77 52.8 126.71L51.24 123.1C51.214 123.035 51.1692 122.979 51.1112 122.94C51.0533 122.901 50.9849 122.88 50.915 122.88C50.845 122.88 50.7767 122.901 50.7187 122.94C50.6608 122.979 50.6159 123.035 50.59 123.1Z" fill="#1E71CF"/>
<path d="M61.9 122.5V132.26C61.9 132.687 61.6867 132.9 61.26 132.9H60.12C59.9476 132.9 59.7823 132.832 59.6604 132.71C59.5385 132.588 59.47 132.422 59.47 132.25V120.48C59.47 120.322 59.5326 120.169 59.6446 120.056C59.7566 119.942 59.9091 119.875 60.07 119.87C62.59 119.77 70.27 118.73 69.39 123.77C69.11 125.39 67.99 126.18 66.8 127.12C66.5467 127.32 66.51 127.553 66.69 127.82L69.94 132.45C70.18 132.79 70.09 132.96 69.67 132.96H68.08C67.6667 132.96 67.34 132.79 67.1 132.45L63.52 127.35C63.4563 127.26 63.4139 127.156 63.3962 127.047C63.3784 126.937 63.3857 126.826 63.4175 126.72C63.4493 126.614 63.5048 126.516 63.5797 126.435C63.6546 126.354 63.747 126.29 63.85 126.25C65.58 125.57 67.63 124.66 66.73 122.42C66.6647 122.263 66.5548 122.128 66.4141 122.034C66.2735 121.94 66.1085 121.89 65.94 121.89H62.52C62.3556 121.89 62.1979 121.954 62.0816 122.069C61.9653 122.183 61.9 122.338 61.9 122.5Z" fill="#1E71CF"/>
<path d="M77.97 121.86C77.8056 121.86 77.6479 121.924 77.5317 122.039C77.4154 122.153 77.35 122.308 77.35 122.47L77.41 132.3C77.41 132.727 77.1967 132.94 76.77 132.94L75.62 132.95C75.5338 132.951 75.4482 132.936 75.3682 132.903C75.2882 132.871 75.2153 132.824 75.1539 132.763C75.0925 132.703 75.0437 132.631 75.0104 132.551C74.9771 132.472 74.96 132.386 74.96 132.3L74.89 120.46C74.8874 120.3 74.9488 120.145 75.0611 120.029C75.1733 119.913 75.3274 119.845 75.49 119.84C78.02 119.72 85.75 118.63 84.89 123.7C84.62 125.34 83.5 126.14 82.31 127.09C82.0567 127.297 82.02 127.533 82.2 127.8L85.5 132.43C85.7467 132.777 85.6567 132.95 85.23 132.95L83.63 132.96C83.2167 132.96 82.8867 132.79 82.64 132.45L79.01 127.34C78.946 127.249 78.9032 127.146 78.8848 127.036C78.8663 126.927 78.8727 126.815 78.9034 126.708C78.9342 126.602 78.9884 126.503 79.0623 126.421C79.1361 126.338 79.2276 126.273 79.33 126.23C81.07 125.54 83.13 124.61 82.21 122.36C82.143 122.202 82.0312 122.067 81.8888 121.973C81.7465 121.879 81.5799 121.829 81.41 121.83L77.97 121.86Z" fill="#1E71CF"/>
<path d="M86.7 126.31C86.6867 122.63 86.6967 120.607 86.73 120.24C86.7425 120.098 86.7967 119.965 86.8819 119.869C86.9671 119.772 87.0771 119.719 87.19 119.72L95.04 119.66C95.1345 119.66 95.2282 119.678 95.3155 119.714C95.4029 119.75 95.4823 119.802 95.5491 119.868C95.616 119.934 95.669 120.012 95.7052 120.098C95.7414 120.184 95.76 120.277 95.76 120.37L95.77 120.98C95.77 121.413 95.5533 121.633 95.12 121.64L89.52 121.67C89.2067 121.67 89.05 121.83 89.05 122.15L89.07 124.81C89.07 125.11 89.22 125.253 89.52 125.24C90.86 125.207 92.3567 125.173 94.01 125.14C94.9567 125.12 95.43 125.503 95.43 126.29C95.43 127.063 94.96 127.443 94.02 127.43C92.36 127.403 90.8633 127.377 89.53 127.35C89.23 127.343 89.08 127.493 89.08 127.8V130.45C89.08 130.77 89.2367 130.93 89.55 130.93L95.15 130.92C95.5833 130.92 95.8 131.137 95.8 131.57V132.19C95.8 132.378 95.7241 132.559 95.5891 132.692C95.4541 132.825 95.271 132.9 95.08 132.9H87.23C87.116 132.9 87.0052 132.845 86.9199 132.747C86.8345 132.648 86.781 132.514 86.77 132.37C86.7367 132.01 86.7133 129.99 86.7 126.31Z" fill="#1E71CF"/>
<path d="M100.32 122.52V132.01C100.32 132.59 100.03 132.88 99.45 132.88H98.77C98.5472 132.88 98.3336 132.792 98.176 132.634C98.0185 132.477 97.93 132.263 97.93 132.04V120.43C97.93 120.03 98.1333 119.83 98.54 119.83H105.11C105.757 119.829 106.382 120.069 106.864 120.503C107.346 120.936 107.651 121.534 107.72 122.18C108.093 125.7 106.467 127.683 102.84 128.13C102.373 128.183 102.14 127.977 102.14 127.51V126.86C102.14 126.533 102.293 126.31 102.6 126.19C104.39 125.53 106.12 124.47 104.98 122.31C104.793 121.963 104.503 121.79 104.11 121.79H101.06C100.567 121.79 100.32 122.033 100.32 122.52Z" fill="#1E71CF"/>
<path d="M114.33 123.08L110.34 132.32C110.193 132.653 109.937 132.82 109.57 132.82H108.52C108.053 132.82 107.913 132.607 108.1 132.18L113.04 120.73C113.178 120.403 113.409 120.124 113.705 119.928C114 119.731 114.347 119.626 114.702 119.625C115.057 119.624 115.404 119.727 115.7 119.922C115.997 120.116 116.23 120.394 116.37 120.72L121.37 132.27C121.398 132.333 121.41 132.402 121.405 132.47C121.4 132.539 121.378 132.605 121.342 132.663C121.305 132.722 121.255 132.77 121.195 132.804C121.136 132.839 121.069 132.858 121 132.86H119.78C119.603 132.862 119.429 132.811 119.279 132.715C119.13 132.62 119.012 132.482 118.94 132.32L117.84 129.77C117.707 129.463 117.47 129.31 117.13 129.31H114.23C114.103 129.31 113.978 129.276 113.869 129.211C113.759 129.147 113.669 129.054 113.608 128.942C113.546 128.831 113.516 128.705 113.52 128.578C113.524 128.451 113.562 128.327 113.63 128.22C114.197 127.327 115.033 126.977 116.14 127.17C116.205 127.183 116.272 127.178 116.334 127.155C116.396 127.133 116.451 127.094 116.493 127.042C116.534 126.99 116.56 126.928 116.569 126.863C116.577 126.797 116.567 126.73 116.54 126.67L114.98 123.07C114.953 123.005 114.907 122.95 114.849 122.912C114.79 122.874 114.722 122.854 114.652 122.855C114.582 122.856 114.514 122.878 114.456 122.918C114.399 122.958 114.355 123.015 114.33 123.08Z" fill="#1E71CF"/>
<path d="M125.023 119.732L123.743 119.728C123.428 119.727 123.172 119.981 123.171 120.296L123.129 132.356C123.128 132.671 123.382 132.927 123.697 132.928L124.977 132.932C125.292 132.933 125.548 132.679 125.549 132.364L125.591 120.304C125.592 119.989 125.338 119.733 125.023 119.732Z" fill="#1E71CF"/>
<path d="M130.97 121.82C130.888 121.82 130.806 121.836 130.73 121.867C130.654 121.899 130.586 121.945 130.528 122.002C130.47 122.06 130.425 122.128 130.394 122.204C130.364 122.279 130.349 122.359 130.35 122.44L130.4 132.19C130.4 132.617 130.187 132.833 129.76 132.84H128.62C128.449 132.84 128.285 132.773 128.164 132.653C128.042 132.533 127.973 132.371 127.97 132.2L127.92 120.43C127.92 120.273 127.981 120.122 128.091 120.009C128.201 119.895 128.351 119.828 128.51 119.82C131.03 119.7 138.71 118.63 137.85 123.67C137.58 125.29 136.46 126.09 135.27 127.03C135.023 127.23 134.99 127.463 135.17 127.73L138.44 132.35C138.68 132.69 138.59 132.86 138.17 132.86L136.58 132.87C136.167 132.87 135.84 132.7 135.6 132.36L132 127.28C131.936 127.19 131.893 127.087 131.875 126.978C131.856 126.87 131.863 126.758 131.894 126.652C131.924 126.547 131.979 126.449 132.053 126.367C132.126 126.285 132.218 126.221 132.32 126.18C134.05 125.49 136.09 124.57 135.18 122.33C135.113 122.175 135.003 122.042 134.862 121.95C134.722 121.857 134.557 121.809 134.39 121.81L130.97 121.82Z" fill="#1E71CF"/>
<path d="M148 125.22C149.99 125.33 152.17 125.3 152.84 127.37C154.81 133.42 148.02 133.36 143.86 132.54C143.433 132.453 143.22 132.193 143.22 131.76V130.87C143.22 130.43 143.433 130.27 143.86 130.39C146.18 131.07 150.53 131.84 150.73 129C150.797 128.067 150.363 127.58 149.43 127.54C148.943 127.52 148.44 127.497 147.92 127.47C145.93 127.35 143.75 127.38 143.08 125.31C141.11 119.26 147.9 119.32 152.06 120.14C152.487 120.227 152.7 120.487 152.7 120.92V121.81C152.7 122.25 152.487 122.41 152.06 122.29C149.74 121.61 145.39 120.84 145.19 123.68C145.123 124.613 145.557 125.1 146.49 125.14C146.97 125.16 147.473 125.187 148 125.22Z" fill="#1E71CF"/>
<path d="M154.93 126.29C154.93 122.617 154.947 120.6 154.98 120.24C154.992 120.1 155.045 119.969 155.128 119.873C155.211 119.777 155.319 119.723 155.43 119.72L163.26 119.68C163.355 119.68 163.448 119.698 163.536 119.734C163.623 119.77 163.702 119.822 163.769 119.888C163.836 119.954 163.889 120.032 163.925 120.118C163.961 120.204 163.98 120.297 163.98 120.39V121C163.98 121.433 163.763 121.65 163.33 121.65L157.75 121.67C157.437 121.67 157.28 121.827 157.28 122.14L157.29 124.79C157.29 125.09 157.44 125.237 157.74 125.23C159.073 125.203 160.567 125.173 162.22 125.14C163.16 125.12 163.63 125.503 163.63 126.29C163.63 127.063 163.16 127.443 162.22 127.43C160.567 127.397 159.073 127.367 157.74 127.34C157.44 127.327 157.29 127.473 157.29 127.78L157.28 130.43C157.28 130.743 157.437 130.9 157.75 130.9L163.34 130.91C163.773 130.91 163.987 131.127 163.98 131.56V132.17C163.98 132.263 163.961 132.356 163.925 132.442C163.889 132.528 163.836 132.606 163.769 132.672C163.702 132.738 163.623 132.79 163.536 132.826C163.448 132.862 163.355 132.88 163.26 132.88L155.44 132.85C155.327 132.85 155.217 132.797 155.132 132.701C155.047 132.605 154.993 132.472 154.98 132.33C154.947 131.97 154.93 129.957 154.93 126.29Z" fill="#1E71CF"/>
<path d="M168.84 121.73C168.757 121.73 168.675 121.747 168.598 121.778C168.521 121.81 168.452 121.857 168.394 121.916C168.336 121.975 168.291 122.044 168.261 122.121C168.231 122.197 168.217 122.278 168.22 122.36L168.35 132.19C168.357 132.623 168.147 132.843 167.72 132.85L166.57 132.86C166.397 132.863 166.229 132.797 166.104 132.677C165.978 132.558 165.905 132.393 165.9 132.22L165.74 120.35C165.737 120.192 165.799 120.038 165.911 119.923C166.023 119.807 166.177 119.738 166.34 119.73C168.88 119.6 176.6 118.44 175.79 123.53C175.53 125.17 174.41 125.98 173.22 126.95C172.967 127.15 172.933 127.383 173.12 127.65L176.46 132.28C176.707 132.613 176.617 132.783 176.19 132.79L174.59 132.81C174.177 132.817 173.847 132.65 173.6 132.31L169.92 127.22C169.856 127.13 169.813 127.026 169.795 126.916C169.776 126.807 169.783 126.695 169.813 126.588C169.844 126.482 169.898 126.383 169.972 126.301C170.046 126.218 170.138 126.153 170.24 126.11C171.97 125.4 174.02 124.46 173.09 122.21C173.021 122.052 172.907 121.919 172.763 121.826C172.618 121.734 172.45 121.686 172.28 121.69L168.84 121.73Z" fill="#1E71CF"/>
<path d="M183.62 128.93L187.41 120.2C187.543 119.893 187.777 119.74 188.11 119.74H189.54C189.967 119.74 190.097 119.937 189.93 120.33L184.88 131.97C184.738 132.3 184.502 132.582 184.202 132.779C183.901 132.977 183.55 133.082 183.19 133.082C182.83 133.082 182.479 132.977 182.178 132.779C181.878 132.582 181.642 132.3 181.5 131.97L176.57 120.53C176.35 120.017 176.52 119.76 177.08 119.76H178.46C178.847 119.76 179.117 119.937 179.27 120.29L183 128.93C183.207 129.417 183.413 129.417 183.62 128.93Z" fill="#1E71CF"/>
<path d="M193.33 119.76H191.89C191.614 119.76 191.39 119.984 191.39 120.26V132.44C191.39 132.716 191.614 132.94 191.89 132.94H193.33C193.606 132.94 193.83 132.716 193.83 132.44V120.26C193.83 119.984 193.606 119.76 193.33 119.76Z" fill="#1E71CF"/>
<path d="M195.78 126.3C195.79 120.18 200.55 118.72 206.18 120.13C206.547 120.217 206.73 120.447 206.73 120.82L206.72 121.85C206.72 122.177 206.563 122.283 206.25 122.17C202.6 120.86 198.2 121.55 198.2 126.3C198.19 131.06 202.59 131.75 206.24 130.45C206.553 130.343 206.71 130.453 206.71 130.78V131.8C206.71 132.173 206.53 132.407 206.17 132.5C200.54 133.89 195.77 132.42 195.78 126.3Z" fill="#1E71CF"/>
<path d="M217.42 126.3C217.427 127.073 216.96 127.453 216.02 127.44C214.367 127.413 212.873 127.387 211.54 127.36C211.24 127.353 211.09 127.5 211.09 127.8V130.45C211.09 130.763 211.247 130.92 211.56 130.92H217.14C217.573 130.92 217.79 131.137 217.79 131.57V132.18C217.79 132.273 217.771 132.366 217.735 132.452C217.699 132.538 217.646 132.616 217.579 132.682C217.512 132.748 217.433 132.8 217.346 132.836C217.258 132.872 217.165 132.89 217.07 132.89L209.25 132.88C209.137 132.88 209.028 132.827 208.942 132.731C208.857 132.634 208.803 132.502 208.79 132.36C208.757 132 208.737 129.987 208.73 126.32C208.717 122.653 208.727 120.637 208.76 120.27C208.773 120.128 208.827 119.995 208.912 119.899C208.997 119.803 209.107 119.749 209.22 119.75L217.04 119.7C217.135 119.7 217.228 119.718 217.316 119.754C217.403 119.79 217.482 119.842 217.549 119.908C217.616 119.974 217.669 120.052 217.705 120.138C217.741 120.224 217.76 120.317 217.76 120.41V121.02C217.767 121.453 217.553 121.67 217.12 121.67L211.54 121.7C211.227 121.7 211.07 121.857 211.07 122.17L211.08 124.82C211.08 125.12 211.23 125.267 211.53 125.26C212.863 125.227 214.357 125.193 216.01 125.16C216.95 125.133 217.42 125.513 217.42 126.3Z" fill="#1E71CF"/>
<path d="M224.18 127.44C222.19 127.34 220.02 127.39 219.34 125.34C217.31 119.34 224.07 119.33 228.22 120.1C228.647 120.187 228.863 120.443 228.87 120.87L228.88 121.76C228.88 122.2 228.667 122.36 228.24 122.24C225.93 121.59 221.59 120.87 221.42 123.7C221.36 124.627 221.793 125.107 222.72 125.14C223.207 125.153 223.71 125.173 224.23 125.2C226.22 125.29 228.38 125.24 229.07 127.29C231.09 133.3 224.33 133.31 220.18 132.53C219.753 132.45 219.54 132.193 219.54 131.76L219.53 130.87C219.523 130.437 219.733 130.277 220.16 130.39C222.48 131.04 226.82 131.77 226.99 128.94C227.043 128.007 226.607 127.527 225.68 127.5C225.2 127.48 224.7 127.46 224.18 127.44Z" fill="#1E71CF"/>
<path d="M42.2 158.46L43.87 162.32C43.9621 162.534 44.1144 162.717 44.3082 162.845C44.502 162.973 44.7287 163.041 44.96 163.04H48.02C48.9734 163.04 49.45 163.52 49.45 164.48V171.58C49.45 172.46 49.01 172.9 48.13 172.9H44.78C44.5732 172.9 44.3758 172.967 44.22 173.09C43.62 173.563 43.2 174.493 42.96 175.88C42.7867 176.873 42.27 177.097 41.41 176.55L39.08 175.07C38.2067 174.517 37.9367 173.727 38.27 172.7C42.54 159.56 27.61 148.51 16.39 156.89C12.08 160.11 10.23 164.59 10.9 169.84C11.0067 170.673 11.18 171.943 11.42 173.65C11.4667 174.01 11.3567 174.3 11.09 174.52L8.41003 176.72C8.29773 176.813 8.16546 176.878 8.02364 176.911C7.88182 176.943 7.73433 176.943 7.59278 176.909C7.45123 176.875 7.31949 176.809 7.20795 176.715C7.09641 176.622 7.00811 176.503 6.95002 176.37L5.87003 173.86C5.77896 173.645 5.63102 173.457 5.44129 173.317C5.25156 173.176 5.02684 173.087 4.79002 173.06L1.18002 172.68C0.240023 172.573 -0.22998 172.047 -0.22998 171.1V165.14C-0.22998 164.067 0.300024 163.46 1.36002 163.32L5.16003 162.81C5.29997 162.792 5.43265 162.738 5.54491 162.654C5.65718 162.57 5.74512 162.458 5.80003 162.33L7.49002 158.43C7.55854 158.275 7.56952 158.089 7.52162 157.894C7.47373 157.699 7.369 157.503 7.22002 157.33L5.05003 154.76C4.77665 154.44 4.62685 154.034 4.62869 153.618C4.63053 153.202 4.78388 152.805 5.06002 152.5L9.17002 147.98C9.70335 147.393 10.2934 147.343 10.94 147.83L14.39 150.44C14.69 150.66 15.0067 150.697 15.34 150.55L19.45 148.78C19.8367 148.613 20.03 148.317 20.03 147.89V144.58C20.03 144.14 20.2049 143.717 20.5162 143.406C20.8275 143.095 21.2498 142.92 21.69 142.92H28.59C29.1367 142.92 29.41 143.197 29.41 143.75V147.4C29.41 147.813 29.58 148.14 29.92 148.38C31.38 149.413 32.92 150.16 34.54 150.62C34.6964 150.666 34.8643 150.67 35.0285 150.631C35.1926 150.593 35.3479 150.513 35.48 150.4L38.26 148.04C39.1467 147.287 39.9967 147.37 40.81 148.29L44.59 152.59C45.1634 153.25 45.1767 153.943 44.63 154.67L42.48 157.51C42.3484 157.683 42.252 157.865 42.2023 158.033C42.1526 158.202 42.1518 158.35 42.2 158.46Z" fill="#FFCC00"/>
<path d="M244.88 166.51C255.33 166.52 261.69 156.32 258.23 146.85C258.09 146.463 258.187 146.153 258.52 145.92L261.88 143.57C262.16 143.37 262.37 143.43 262.51 143.75L263.85 146.85C263.983 147.163 264.223 147.333 264.57 147.36L267.73 147.63C269.05 147.743 269.71 148.46 269.71 149.78V154.92C269.71 156.24 269.053 156.9 267.74 156.9H264.69C264.303 156.9 264.033 157.073 263.88 157.42L262.01 161.75C261.917 161.957 261.937 162.153 262.07 162.34L264.65 166.03C265.07 166.63 265.02 167.19 264.5 167.71L260.49 171.7C259.837 172.347 259.143 172.393 258.41 171.84L255.44 169.6C255.107 169.347 254.747 169.303 254.36 169.47L250.05 171.33C249.803 171.437 249.67 171.623 249.65 171.89L249.31 175.81C249.289 176.086 249.169 176.345 248.973 176.54C248.776 176.734 248.516 176.852 248.24 176.87C247.347 176.93 246.223 176.96 244.87 176.96C243.523 176.96 242.403 176.93 241.51 176.87C241.234 176.852 240.974 176.734 240.777 176.54C240.581 176.345 240.461 176.086 240.44 175.81L240.1 171.89C240.08 171.623 239.947 171.437 239.7 171.33L235.39 169.47C235.003 169.303 234.643 169.347 234.31 169.6L231.34 171.84C230.607 172.387 229.913 172.337 229.26 171.69L225.25 167.7C224.73 167.18 224.68 166.62 225.1 166.02L227.68 162.33C227.813 162.143 227.833 161.947 227.74 161.74L225.88 157.41C225.727 157.063 225.457 156.89 225.07 156.89H222.02C220.707 156.89 220.05 156.23 220.05 154.91V149.77C220.05 148.45 220.71 147.733 222.03 147.62L225.19 147.35C225.537 147.323 225.777 147.153 225.91 146.84L227.25 143.74C227.39 143.42 227.6 143.36 227.88 143.56L231.24 145.91C231.573 146.15 231.67 146.46 231.53 146.84C228.07 156.31 234.42 166.51 244.88 166.51Z" fill="#1E71CF"/>
<path d="M134.98 153.96C140.21 153.96 145.07 153.11 147.15 158.47C147.75 160.01 148.41 161.787 149.13 163.8C149.25 164.153 149.497 164.33 149.87 164.33H151.08C151.44 164.33 151.737 164.493 151.97 164.82C152.337 165.373 152.57 166.07 152.67 166.91C152.717 167.283 152.553 167.503 152.18 167.57L151.19 167.74C151.119 167.752 151.055 167.789 151.009 167.844C150.964 167.899 150.939 167.968 150.94 168.04V181.13C150.94 181.234 150.92 181.336 150.88 181.432C150.84 181.528 150.782 181.615 150.709 181.689C150.635 181.762 150.548 181.82 150.452 181.86C150.356 181.899 150.254 181.92 150.15 181.92H145.06C144.713 181.92 144.47 181.76 144.33 181.44C144.043 180.78 143.94 180.167 144.02 179.6C144.042 179.451 144.031 179.299 143.989 179.154C143.946 179.01 143.873 178.877 143.773 178.764C143.674 178.652 143.552 178.562 143.415 178.503C143.278 178.444 143.129 178.415 142.98 178.42C140.327 178.487 137.67 178.523 135.01 178.53C132.35 178.53 129.69 178.5 127.03 178.44C126.882 178.437 126.734 178.466 126.598 178.526C126.463 178.586 126.341 178.676 126.243 178.788C126.145 178.9 126.073 179.033 126.031 179.177C125.989 179.32 125.978 179.472 126 179.62C126.08 180.187 125.977 180.8 125.69 181.46C125.55 181.78 125.307 181.94 124.96 181.94L119.87 181.96C119.66 181.96 119.46 181.877 119.311 181.729C119.163 181.58 119.08 181.379 119.08 181.17L119.05 168.08C119.051 168.008 119.026 167.939 118.98 167.884C118.935 167.829 118.871 167.792 118.8 167.78L117.81 167.61C117.437 167.543 117.273 167.323 117.32 166.95C117.413 166.11 117.643 165.413 118.01 164.86C118.243 164.533 118.54 164.37 118.9 164.37H120.11C120.483 164.363 120.73 164.183 120.85 163.83C121.563 161.817 122.22 160.037 122.82 158.49C124.89 153.13 129.75 153.97 134.98 153.96ZM124.63 165.17H145.31C145.517 165.17 145.715 165.088 145.862 164.941C146.008 164.795 146.09 164.597 146.09 164.39V163.9C146.09 161.855 145.426 159.894 144.245 158.448C143.063 157.002 141.461 156.19 139.79 156.19H130.15C128.479 156.19 126.877 157.002 125.695 158.448C124.514 159.894 123.85 161.855 123.85 163.9V164.39C123.85 164.597 123.932 164.795 124.078 164.941C124.225 165.088 124.423 165.17 124.63 165.17ZM122.22 172.55C123.46 172.13 124.45 172.51 125.73 172.98C126.343 173.207 126.95 173.19 127.55 172.93L127.96 172.75C128.087 172.695 128.195 172.605 128.271 172.49C128.347 172.376 128.388 172.241 128.389 172.103C128.39 171.965 128.351 171.83 128.277 171.714C128.202 171.598 128.096 171.506 127.97 171.45L122.1 168.91C121.97 168.854 121.824 168.844 121.688 168.882C121.551 168.921 121.432 169.004 121.35 169.12C120.803 169.887 120.66 170.93 120.92 172.25C120.987 172.597 121.223 172.75 121.63 172.71C121.757 172.697 121.953 172.643 122.22 172.55ZM149.4 171.47L148.77 169.26C148.754 169.203 148.727 169.149 148.69 169.102C148.653 169.056 148.607 169.017 148.555 168.988C148.503 168.959 148.445 168.941 148.386 168.934C148.327 168.928 148.267 168.933 148.21 168.95L147.99 169.02C146.295 169.506 144.716 170.132 143.599 170.76C142.482 171.388 141.917 171.967 142.03 172.37L142.04 172.41C142.158 172.812 142.944 173.004 144.227 172.944C145.51 172.884 147.183 172.577 148.88 172.09L149.1 172.03C149.214 171.995 149.309 171.917 149.366 171.812C149.422 171.707 149.434 171.584 149.4 171.47Z" fill="#1E71CF"/>
<path d="M23.91 187.54C23.8767 187.567 23.8433 187.597 23.81 187.63L23.7 187.74C23.2867 189.56 22.9167 191.313 22.59 193C22.5033 193.44 22.28 193.523 21.92 193.25L21.72 193.1C21.12 192.647 20.9133 192.057 21.1 191.33L21.97 187.93C22.2767 186.717 21.94 186.497 20.96 187.27L19.23 188.64C18.9167 188.887 18.6 188.89 18.28 188.65L17.86 188.33C17.5 188.063 17.49 187.783 17.83 187.49C19.0233 186.477 20.23 185.48 21.45 184.5C22.67 183.513 23.9033 182.547 25.15 181.6C25.51 181.327 25.78 181.393 25.96 181.8L26.19 182.28C26.3567 182.64 26.2833 182.947 25.97 183.2L24.27 184.6C23.3033 185.393 23.4467 185.77 24.7 185.73L28.21 185.6C28.9567 185.573 29.4867 185.903 29.8 186.59L29.91 186.81C30.0967 187.223 29.9667 187.423 29.52 187.41C27.8 187.377 26.0067 187.367 24.14 187.38L24.01 187.46C23.9766 187.487 23.9433 187.513 23.91 187.54Z" fill="#1E71CF"/>
<path d="M237.7 188.04C237.622 187.978 237.556 187.901 237.508 187.813C237.46 187.726 237.429 187.629 237.418 187.53C237.407 187.431 237.415 187.33 237.443 187.234C237.471 187.138 237.517 187.048 237.58 186.97L239.04 185.16C239.461 184.636 239.969 184.191 240.537 183.851C241.105 183.512 241.722 183.283 242.35 183.179C242.979 183.075 243.608 183.097 244.202 183.245C244.796 183.393 245.342 183.663 245.81 184.04L246.65 184.71C247.118 185.086 247.499 185.562 247.771 186.11C248.042 186.657 248.199 187.267 248.233 187.903C248.266 188.539 248.175 189.19 247.966 189.817C247.756 190.445 247.431 191.037 247.01 191.56L245.55 193.37C245.488 193.448 245.411 193.514 245.323 193.562C245.236 193.61 245.139 193.641 245.04 193.652C244.941 193.663 244.84 193.655 244.744 193.627C244.648 193.599 244.558 193.553 244.48 193.49L237.7 188.04ZM240.22 187.73L244.29 190.97C244.46 191.105 244.676 191.167 244.892 191.143C245.107 191.118 245.304 191.009 245.44 190.84L245.91 190.25C246.406 189.625 246.632 188.827 246.538 188.032C246.445 187.237 246.039 186.51 245.41 186.01L244.8 185.53C244.173 185.03 243.374 184.798 242.579 184.884C241.784 184.971 241.058 185.368 240.56 185.99L240.09 186.58C239.955 186.75 239.893 186.966 239.918 187.182C239.942 187.398 240.051 187.595 240.22 187.73Z" fill="#1E71CF"/>
<path d="M161.88 184.34C163.305 184.34 164.46 184.094 164.46 183.79C164.46 183.486 163.305 183.24 161.88 183.24C160.455 183.24 159.3 183.486 159.3 183.79C159.3 184.094 160.455 184.34 161.88 184.34Z" fill="#FFCC00"/>
<path d="M107.42 184.188C108.194 184.271 108.84 184.168 108.862 183.96C108.884 183.751 108.275 183.515 107.5 183.432C106.726 183.349 106.08 183.451 106.058 183.66C106.036 183.869 106.645 184.105 107.42 184.188Z" fill="#FFCC00"/>
<path d="M135.21 184.22C144.577 184.3 151.267 184.68 155.28 185.36C165.73 187.13 178.52 190.29 187.67 196.21C187.731 196.247 187.777 196.304 187.8 196.372C187.823 196.439 187.821 196.513 187.794 196.579C187.768 196.645 187.719 196.7 187.655 196.733C187.592 196.766 187.52 196.776 187.45 196.76C181.33 195.76 175.33 194.19 168.84 193.4C162.26 192.593 157.45 192.013 154.41 191.66C154.329 191.65 154.247 191.661 154.173 191.693C154.098 191.724 154.032 191.775 153.984 191.84C153.935 191.905 153.904 191.982 153.895 192.063C153.885 192.144 153.898 192.226 153.93 192.3C154.183 192.913 154.3 193.56 154.28 194.24C154.274 194.399 154.231 194.555 154.155 194.695C154.078 194.836 153.971 194.957 153.84 195.05L151.14 196.94C150.761 197.206 150.3 197.327 149.838 197.283C149.377 197.239 148.945 197.033 148.62 196.7C146.32 194.35 143.77 191.19 140.35 194.24C138.85 195.57 138.78 198.34 138.27 199.59C138.15 199.897 137.937 200.12 137.63 200.26C137.303 200.413 136.447 200.483 135.06 200.47C133.673 200.463 132.82 200.38 132.5 200.22C132.193 200.073 131.983 199.843 131.87 199.53C131.39 198.27 131.36 195.5 129.89 194.15C126.52 191.04 123.92 194.15 121.58 196.46C121.249 196.789 120.813 196.99 120.349 197.027C119.886 197.063 119.425 196.933 119.05 196.66L116.39 194.72C116.26 194.625 116.153 194.502 116.079 194.359C116.004 194.217 115.964 194.06 115.96 193.9C115.953 193.22 116.08 192.577 116.34 191.97C116.374 191.897 116.387 191.816 116.38 191.736C116.372 191.655 116.344 191.578 116.297 191.512C116.251 191.447 116.188 191.394 116.114 191.36C116.041 191.327 115.96 191.313 115.88 191.32C112.833 191.62 108.013 192.117 101.42 192.81C94.91 193.48 88.89 194.95 82.75 195.84C82.6775 195.861 82.5998 195.854 82.5325 195.82C82.4651 195.786 82.413 195.728 82.3865 195.657C82.36 195.586 82.3611 195.508 82.3896 195.439C82.418 195.369 82.4717 195.312 82.54 195.28C91.79 189.53 104.64 186.59 115.12 185C119.14 184.393 125.837 184.133 135.21 184.22Z" fill="#FFCC00"/>
<path d="M29.15 193.87C31.21 191.943 32.3233 190.917 32.49 190.79C32.8233 190.523 33.1367 190.547 33.43 190.86L37.19 194.94C37.244 194.998 37.2853 195.067 37.3113 195.142C37.3372 195.217 37.3472 195.296 37.3406 195.375C37.334 195.454 37.311 195.531 37.273 195.601C37.235 195.671 37.1829 195.732 37.12 195.78L36.68 196.13C36.3333 196.417 36.0167 196.383 35.73 196.03L33.76 193.57C33.36 193.07 32.91 193.02 32.41 193.42L31.58 194.08C31.1133 194.453 31.1033 194.843 31.55 195.25C33.5033 197.003 34.1533 198.107 33.5 198.56C33.04 199.153 31.9967 198.42 30.37 196.36C29.99 195.88 29.6 195.863 29.2 196.31L28.49 197.09C28.0567 197.563 28.0767 198.017 28.55 198.45L30.88 200.58C31.2133 200.887 31.2267 201.203 30.92 201.53L30.54 201.95C30.4873 202.009 30.4229 202.056 30.351 202.089C30.2791 202.121 30.2012 202.139 30.1222 202.14C30.0432 202.14 29.9649 202.125 29.8922 202.094C29.8195 202.063 29.7541 202.017 29.7 201.96L25.87 197.94C25.5767 197.627 25.5733 197.313 25.86 197C26 196.84 27.0967 195.797 29.15 193.87Z" fill="#1E71CF"/>
<path d="M237.25 199.28C236.73 199.82 236.45 200.117 236.41 200.17C236.157 200.557 236.067 200.837 236.14 201.01L236.62 202.18C236.753 202.5 236.717 202.8 236.51 203.08L236.16 203.54C235.827 203.987 235.53 203.96 235.27 203.46C232.99 199.013 231.597 196.233 231.09 195.12C230.957 194.833 230.913 194.57 230.96 194.33C231 194.13 231.153 193.893 231.42 193.62C231.687 193.34 231.92 193.18 232.12 193.14C232.36 193.08 232.623 193.113 232.91 193.24C234.043 193.713 236.863 195.027 241.37 197.18C241.877 197.427 241.913 197.723 241.48 198.07L241.03 198.43C240.757 198.643 240.457 198.69 240.13 198.57L238.95 198.12C238.77 198.053 238.493 198.153 238.12 198.42C238.06 198.453 237.77 198.74 237.25 199.28ZM236.14 198.31C236.32 198.137 236.46 197.947 236.56 197.74C236.72 197.427 236.653 197.17 236.36 196.97C234.693 195.843 233.75 195.387 233.53 195.6C233.303 195.813 233.727 196.773 234.8 198.48C234.987 198.78 235.24 198.857 235.56 198.71C235.767 198.61 235.96 198.477 236.14 198.31Z" fill="#1E71CF"/>
<path d="M41.87 206.28C41.47 206.92 40.3667 206.29 38.56 204.39C38.14 203.957 37.75 203.98 37.39 204.46L36.76 205.3C36.3733 205.813 36.4367 206.26 36.95 206.64L39.46 208.54C39.82 208.813 39.8633 209.127 39.59 209.48L39.25 209.93C39.2032 209.993 39.1439 210.045 39.0758 210.084C39.0078 210.123 38.9325 210.147 38.8546 210.156C38.7767 210.164 38.6979 210.156 38.6232 210.133C38.5484 210.11 38.4792 210.071 38.42 210.02L34.24 206.39C33.92 206.11 33.8867 205.8 34.14 205.46C34.2667 205.287 35.26 204.147 37.12 202.04C38.98 199.933 39.9867 198.81 40.14 198.67C40.4467 198.377 40.7567 198.37 41.07 198.65L45.19 202.35C45.2479 202.402 45.2946 202.465 45.3271 202.536C45.3597 202.606 45.3775 202.683 45.3793 202.761C45.3812 202.838 45.3672 202.916 45.338 202.988C45.3089 203.06 45.2654 203.125 45.21 203.18L44.8 203.58C44.4867 203.893 44.17 203.887 43.85 203.56L41.66 201.31C41.22 200.843 40.7667 200.837 40.3 201.29L39.55 202.01C39.1167 202.43 39.1434 202.82 39.63 203.18C41.7367 204.74 42.4833 205.773 41.87 206.28Z" fill="#1E71CF"/>
<path d="M228.805 210.581C227.795 211.42 226.467 211.792 225.114 211.616C223.762 211.44 222.494 210.73 221.591 209.642C221.144 209.103 220.8 208.488 220.579 207.832C220.357 207.176 220.262 206.491 220.3 205.816C220.337 205.142 220.506 204.491 220.797 203.901C221.088 203.312 221.495 202.794 221.995 202.379C223.005 201.541 224.333 201.168 225.686 201.345C227.038 201.521 228.306 202.231 229.208 203.318C229.656 203.857 230 204.472 230.221 205.128C230.443 205.785 230.538 206.47 230.5 207.144C230.463 207.818 230.294 208.469 230.003 209.059C229.712 209.649 229.305 210.166 228.805 210.581ZM227.744 209.24C228.357 208.712 228.695 207.916 228.683 207.025C228.672 206.135 228.312 205.223 227.682 204.491C227.053 203.759 226.205 203.267 225.327 203.122C224.448 202.978 223.61 203.193 222.996 203.72C222.383 204.248 222.045 205.045 222.057 205.935C222.068 206.826 222.428 207.737 223.058 208.469C223.687 209.201 224.535 209.693 225.413 209.838C226.292 209.982 227.13 209.767 227.744 209.24Z" fill="#1E71CF"/>
<path d="M46.08 212.42C46.0733 212.44 45.5133 213.213 44.4 214.74C44.3067 214.86 44.2 214.873 44.08 214.78L43.23 214.14C43.1697 214.096 43.1189 214.04 43.0807 213.976C43.0424 213.912 43.0174 213.841 43.0072 213.766C42.997 213.692 43.0017 213.616 43.021 213.542C43.0404 213.469 43.074 213.4 43.12 213.34L48.48 206.23C48.72 205.917 49.0067 205.863 49.34 206.07C51.39 207.31 55.14 209.35 53.3 212.4C52.5733 213.607 51.4567 214.053 49.95 213.74C49.877 213.72 49.8064 213.69 49.74 213.65L46.78 211.81C46.5133 211.643 46.28 211.847 46.08 212.42ZM49.04 208.51L48.02 209.99C47.9798 210.047 47.9512 210.111 47.936 210.18C47.9208 210.248 47.9191 210.318 47.9312 210.387C47.9433 210.456 47.9688 210.521 48.0064 210.58C48.0439 210.639 48.0927 210.69 48.15 210.73L49.24 211.48C49.69 211.791 50.1981 211.978 50.6534 212C51.1087 212.023 51.4741 211.879 51.67 211.6L51.83 211.37C51.9264 211.231 51.9778 211.062 51.9812 210.874C51.9846 210.686 51.94 210.482 51.8499 210.274C51.7598 210.066 51.626 209.858 51.4562 209.662C51.2863 209.465 51.0837 209.285 50.86 209.13L49.78 208.38C49.7229 208.34 49.6585 208.311 49.5903 208.296C49.5222 208.281 49.4517 208.279 49.383 208.291C49.3142 208.303 49.2485 208.329 49.1897 208.366C49.1308 208.404 49.0799 208.453 49.04 208.51Z" fill="#1E71CF"/>
<path d="M215.1 215.45L214.36 216.43C214.2 216.637 214.197 216.847 214.35 217.06L215.83 219.18C215.943 219.34 215.989 219.538 215.957 219.732C215.925 219.926 215.819 220.101 215.66 220.22L215.26 220.52C214.927 220.773 214.64 220.73 214.4 220.39L209.23 213C209.017 212.693 209.063 212.437 209.37 212.23L213.47 209.35C213.663 209.221 213.895 209.168 214.12 209.2C216.567 209.533 217.633 210.893 217.32 213.28C217.28 213.58 217.38 213.82 217.62 214L220.53 216.2C220.823 216.42 220.82 216.637 220.52 216.85L220.14 217.11C219.916 217.267 219.648 217.348 219.375 217.343C219.102 217.337 218.838 217.245 218.62 217.08L216.25 215.29C215.81 214.963 215.427 215.017 215.1 215.45ZM215.31 211.766C215.19 211.606 215.03 211.479 214.839 211.392C214.647 211.305 214.428 211.259 214.194 211.258C213.96 211.257 213.716 211.3 213.475 211.385C213.234 211.47 213.001 211.595 212.789 211.753C212.363 212.072 212.049 212.507 211.918 212.961C211.787 213.415 211.849 213.851 212.091 214.174C212.21 214.334 212.37 214.461 212.561 214.548C212.753 214.635 212.972 214.681 213.206 214.682C213.44 214.683 213.684 214.64 213.925 214.555C214.166 214.47 214.399 214.345 214.611 214.187C215.037 213.868 215.351 213.433 215.482 212.979C215.613 212.525 215.551 212.089 215.31 211.766Z" fill="#1E71CF"/>
<path d="M59.5953 213.024L59.2594 212.807C58.9163 212.585 58.4582 212.683 58.2362 213.027L53.4454 220.432C53.2234 220.775 53.3216 221.233 53.6647 221.455L54.0006 221.673C54.3437 221.895 54.8019 221.796 55.0239 221.453L59.8147 214.048C60.0366 213.705 59.9384 213.246 59.5953 213.024Z" fill="#1E71CF"/>
<path d="M65.96 222.5C65.9933 223.16 66.0066 223.69 66 224.09C66 225.07 66.2467 225.133 66.74 224.28L69.32 219.81C69.5733 219.377 69.9167 219.283 70.35 219.53L70.72 219.75C71.1266 219.983 71.2133 220.303 70.98 220.71L66.62 228.27C66.44 228.57 66.1766 228.713 65.83 228.7C64.95 228.66 64.5066 228.253 64.5 227.48C64.5 225.82 64.4633 224.163 64.39 222.51C64.37 221.85 64.36 221.32 64.36 220.92C64.36 219.94 64.1133 219.877 63.62 220.73L61.04 225.2C60.7866 225.633 60.4433 225.727 60.01 225.48L59.64 225.26C59.2333 225.027 59.1467 224.707 59.38 224.3L63.74 216.74C63.92 216.44 64.1833 216.297 64.53 216.31C65.41 216.35 65.8533 216.757 65.86 217.53C65.86 219.19 65.8933 220.847 65.96 222.5Z" fill="#1E71CF"/>
<path d="M195.97 225.73C194.697 223.237 194.02 221.893 193.94 221.7C193.78 221.307 193.89 221.013 194.27 220.82L199.19 218.35C199.26 218.315 199.336 218.295 199.414 218.291C199.492 218.287 199.57 218.299 199.643 218.326C199.716 218.353 199.783 218.395 199.839 218.449C199.895 218.503 199.94 218.568 199.97 218.64L200.19 219.16C200.363 219.567 200.243 219.857 199.83 220.03L196.94 221.25C196.353 221.49 196.183 221.907 196.43 222.5L196.83 223.46C197.063 224.013 197.433 224.13 197.94 223.81C200.153 222.43 201.373 222.093 201.6 222.8C202.067 223.44 201.093 224.257 198.68 225.25C198.12 225.477 197.997 225.843 198.31 226.35L198.86 227.24C199.2 227.787 199.64 227.89 200.18 227.55L202.85 225.92C203.237 225.68 203.543 225.753 203.77 226.14L204.06 226.61C204.102 226.677 204.13 226.751 204.141 226.829C204.153 226.907 204.149 226.987 204.128 227.063C204.107 227.139 204.071 227.21 204.021 227.272C203.972 227.333 203.91 227.384 203.84 227.42L198.96 229.97C198.58 230.17 198.28 230.09 198.06 229.73C197.947 229.55 197.25 228.217 195.97 225.73Z" fill="#1E71CF"/>
<path d="M79.28 230.36L78.36 229.95C78.02 229.81 77.9166 229.567 78.05 229.22C78.1033 229.067 78.1833 228.92 78.29 228.78C78.4433 228.56 78.6433 228.503 78.89 228.61L81.36 229.68C81.8666 229.9 82.01 230.263 81.79 230.77L80.17 234.5C80.1292 234.595 80.0651 234.678 79.9837 234.741C79.9022 234.804 79.806 234.846 79.7042 234.862C79.6023 234.878 79.498 234.867 79.4011 234.832C79.3042 234.797 79.2178 234.738 79.15 234.66C78.6366 234.073 78.1766 233.76 77.77 233.72C68.57 232.88 73.3 220.6 79.7 223.65C81.7133 224.61 82.7167 225.993 82.71 227.8C82.7033 228.147 82.53 228.283 82.19 228.21C81.35 228.03 80.83 227.513 80.63 226.66C80.55 226.327 80.3866 226.043 80.14 225.81C77.67 223.49 75.37 225.43 74.67 228.24C73.88 231.39 78.1 233.76 79.51 230.98C79.5381 230.925 79.5545 230.864 79.5581 230.802C79.5616 230.74 79.5523 230.678 79.5307 230.62C79.5091 230.561 79.4757 230.508 79.4325 230.464C79.3894 230.419 79.3374 230.384 79.28 230.36Z" fill="#1E71CF"/>
<path d="M191.29 228.01C191.903 229.557 192.46 230.943 192.96 232.17C193.018 232.313 193.017 232.474 192.96 232.617C192.902 232.761 192.791 232.876 192.65 232.94L192.19 233.14C191.783 233.32 191.49 233.203 191.31 232.79L190.13 230.06C190.017 229.8 189.747 229.697 189.32 229.75C189.107 229.77 188.593 229.947 187.78 230.28C186.967 230.613 186.473 230.847 186.3 230.98C185.967 231.24 185.85 231.503 185.95 231.77L187.03 234.55C187.19 234.97 187.06 235.257 186.64 235.41L186.18 235.59C186.034 235.646 185.872 235.643 185.728 235.582C185.584 235.52 185.47 235.404 185.41 235.26C184.903 234.04 184.327 232.663 183.68 231.13C183.073 229.583 182.517 228.2 182.01 226.98C181.95 226.834 181.95 226.67 182.01 226.524C182.07 226.378 182.185 226.262 182.33 226.2L182.79 226C183.197 225.82 183.49 225.937 183.67 226.35L184.85 229.08C184.963 229.34 185.23 229.447 185.65 229.4C185.87 229.373 186.387 229.193 187.2 228.86C188.007 228.527 188.497 228.293 188.67 228.16C189.01 227.9 189.127 227.637 189.02 227.37L187.95 224.6C187.79 224.18 187.917 223.89 188.33 223.73L188.8 223.55C188.946 223.494 189.108 223.497 189.252 223.558C189.396 223.62 189.51 223.735 189.57 223.88C190.07 225.107 190.643 226.483 191.29 228.01Z" fill="#1E71CF"/>
<path d="M177.31 238.55C176.69 238.743 176.227 238.25 175.92 237.07C175.867 236.87 175.223 234.843 173.99 230.99C173.843 230.55 173.56 230.423 173.14 230.61L171.66 231.25C171.24 231.43 170.91 231.32 170.67 230.92C170.47 230.587 170.48 230.28 170.7 230C170.82 229.84 171.033 229.713 171.34 229.62C172.32 229.327 173.3 229.027 174.28 228.72C175.26 228.42 176.24 228.117 177.22 227.81C177.52 227.717 177.767 227.7 177.96 227.76C178.3 227.873 178.48 228.123 178.5 228.51C178.527 228.977 178.317 229.253 177.87 229.34L176.29 229.64C175.837 229.72 175.673 229.983 175.8 230.43C176.947 234.31 177.557 236.35 177.63 236.55C178.037 237.697 177.93 238.363 177.31 238.55Z" fill="#1E71CF"/>
<path d="M96.73 233.88C96.9433 233.94 97.1133 233.907 97.24 233.78C98.22 232.787 99.0533 231.953 99.74 231.28C99.9268 231.1 100.162 230.979 100.417 230.932C100.672 230.886 100.934 230.917 101.17 231.02L101.53 231.17C101.95 231.357 101.993 231.607 101.66 231.92L97.5 235.87C97.2467 236.11 97.0867 236.397 97.02 236.73C96.56 239.09 95.9133 240.157 95.08 239.93C94.2467 239.703 94.2333 238.453 95.04 236.18C95.1467 235.867 95.1533 235.54 95.06 235.2L93.49 229.68C93.3567 229.247 93.52 229.057 93.98 229.11L94.36 229.16C94.6161 229.191 94.8574 229.298 95.0532 229.467C95.2491 229.636 95.3907 229.86 95.46 230.11C95.7133 231.037 96.01 232.18 96.35 233.54C96.39 233.707 96.5167 233.82 96.73 233.88Z" fill="#1E71CF"/>
<path d="M156.57 238.58C156.143 238.073 155.807 237.663 155.56 237.35C154.947 236.577 154.713 236.68 154.86 237.66L155.63 242.78C155.703 243.28 155.49 243.57 154.99 243.65L154.56 243.71C154.1 243.783 153.833 243.587 153.76 243.12L152.45 234.45C152.403 234.103 152.52 233.827 152.8 233.62C153.52 233.1 154.123 233.14 154.61 233.74C155.65 235.047 156.713 236.33 157.8 237.59C158.233 238.09 158.577 238.493 158.83 238.8C159.443 239.58 159.677 239.48 159.53 238.5L158.75 233.37C158.683 232.87 158.897 232.583 159.39 232.51L159.82 232.45C160.287 232.377 160.553 232.573 160.62 233.04L161.93 241.71C161.977 242.057 161.86 242.333 161.58 242.54C160.86 243.06 160.257 243.017 159.77 242.41C158.73 241.103 157.663 239.827 156.57 238.58Z" fill="#1E71CF"/>
<path d="M108.611 243.337C107.969 243.214 107.36 242.959 106.818 242.585C106.275 242.212 105.81 241.727 105.448 241.159C105.087 240.591 104.836 239.951 104.711 239.274C104.586 238.598 104.588 237.9 104.718 237.219C104.848 236.538 105.103 235.887 105.468 235.305C105.834 234.722 106.302 234.219 106.848 233.824C107.393 233.429 108.004 233.15 108.646 233.002C109.288 232.854 109.948 232.841 110.589 232.964C111.231 233.086 111.84 233.341 112.382 233.715C112.925 234.088 113.39 234.573 113.752 235.141C114.113 235.709 114.364 236.35 114.489 237.026C114.614 237.702 114.612 238.4 114.482 239.081C114.352 239.762 114.097 240.413 113.732 240.995C113.366 241.578 112.898 242.081 112.352 242.476C111.807 242.871 111.196 243.151 110.554 243.298C109.912 243.446 109.252 243.459 108.611 243.337ZM108.965 241.726C109.765 241.865 110.598 241.616 111.28 241.036C111.963 240.455 112.44 239.59 112.605 238.631C112.771 237.672 112.612 236.697 112.164 235.921C111.716 235.145 111.014 234.632 110.215 234.494C109.415 234.356 108.582 234.604 107.9 235.185C107.217 235.765 106.74 236.63 106.575 237.589C106.409 238.548 106.568 239.523 107.016 240.299C107.464 241.075 108.166 241.588 108.965 241.726Z" fill="#1E71CF"/>
<path d="M122.84 243.34C123.56 243.393 124.16 243.237 124.64 242.87C124.933 242.643 125.097 242.347 125.13 241.98L125.7 235.28C125.727 234.953 125.9 234.803 126.22 234.83L126.97 234.89C127.323 234.923 127.493 235.117 127.48 235.47C127.32 239.57 127.95 245.39 122.72 245.02C117.5 244.65 118.94 238.98 119.36 234.9C119.4 234.547 119.597 234.377 119.95 234.39L120.7 234.44C121.02 234.46 121.17 234.633 121.15 234.96L120.77 241.67C120.75 242.037 120.87 242.353 121.13 242.62C121.55 243.047 122.12 243.287 122.84 243.34Z" fill="#1E71CF"/>
<path d="M143.706 245.042C143.058 245.077 142.409 244.976 141.797 244.742C141.184 244.509 140.619 244.15 140.134 243.684C139.65 243.218 139.255 242.656 138.972 242.028C138.69 241.401 138.525 240.721 138.487 240.027C138.411 238.626 138.858 237.254 139.73 236.214C140.601 235.173 141.826 234.549 143.134 234.478C143.782 234.443 144.431 234.545 145.043 234.778C145.656 235.011 146.221 235.37 146.706 235.836C147.19 236.302 147.585 236.864 147.868 237.492C148.15 238.119 148.315 238.799 148.353 239.493C148.429 240.894 147.982 242.266 147.11 243.306C146.239 244.347 145.014 244.971 143.706 245.042ZM143.656 243.372C144.053 243.347 144.44 243.227 144.795 243.02C145.15 242.812 145.466 242.522 145.725 242.164C145.984 241.807 146.181 241.39 146.304 240.937C146.427 240.484 146.475 240.004 146.444 239.525C146.413 239.045 146.304 238.575 146.123 238.142C145.943 237.708 145.694 237.32 145.391 236.999C145.088 236.678 144.738 236.431 144.359 236.271C143.98 236.111 143.581 236.042 143.184 236.068C142.787 236.093 142.4 236.213 142.045 236.42C141.69 236.628 141.374 236.918 141.115 237.276C140.856 237.633 140.659 238.05 140.536 238.503C140.413 238.956 140.365 239.436 140.396 239.916C140.427 240.395 140.536 240.865 140.717 241.298C140.897 241.732 141.146 242.12 141.449 242.441C141.752 242.762 142.102 243.009 142.481 243.169C142.86 243.329 143.259 243.398 143.656 243.372Z" fill="#1E71CF"/>
</g>
<defs>
<clipPath id="clip0_102_2">
<rect width="271" height="246" fill="white"/>
</clipPath>
</defs>
</svg>
